<svg xmlns="http://www.w3.org/2000/svg" viewBox="0 0 750 420">
  <text x="375" y="30" text-anchor="middle" font-family="sans-serif" font-size="18" font-weight="bold" fill="#1D1D28">Dependent repos of ISC-published packages</text>
  <g transform="translate(0,20)">
    <path d="M200,200 L200.0,20.0 A180,180 0 0,1 379.91,205.79 Z" fill="#7878EF" stroke="white" stroke-width="2"/>
    <path d="M200,200 L379.91,205.79 A180,180 0 0,1 239.96,375.51 Z" fill="#45E56E" stroke="white" stroke-width="2"/>
    <path d="M200,200 L239.96,375.51 A180,180 0 0,1 116.63,359.53 Z" fill="#FF807D" stroke="white" stroke-width="2"/>
    <path d="M200,200 L116.63,359.53 A180,180 0 0,1 75.66,330.15 Z" fill="#BBBBFF" stroke="white" stroke-width="2"/>
    <path d="M200,200 L75.66,330.15 A180,180 0 0,1 45.33,292.07 Z" fill="#87F5AA" stroke="white" stroke-width="2"/>
    <path d="M200,200 L45.33,292.07 A180,180 0 0,1 26.99,249.66 Z" fill="#FEBDB9" stroke="white" stroke-width="2"/>
    <path d="M200,200 L26.99,249.66 A180,180 0 0,1 20.14,207.17 Z" fill="#5C5CCF" stroke="white" stroke-width="2"/>
    <path d="M200,200 L20.14,207.17 A180,180 0 0,1 20.0,198.88 Z" fill="#2EAF6B" stroke="white" stroke-width="2"/>
    <path d="M200,200 L20.0,198.88 A180,180 0 0,1 200.0,20.0 Z" fill="#DCDCE0" stroke="white" stroke-width="2"/>
    <rect x="430" y="40" width="18" height="18" fill="#7878EF" rx="3"/><text x="456" y="54" font-family="sans-serif" font-size="13" fill="#1D1D28">typescript (25.5%)</text>
<rect x="430" y="68" width="18" height="18" fill="#45E56E" rx="3"/><text x="456" y="82" font-family="sans-serif" font-size="13" fill="#1D1D28">tslib (20.9%)</text>
<rect x="430" y="96" width="18" height="18" fill="#FF807D" rx="3"/><text x="456" y="110" font-family="sans-serif" font-size="13" fill="#1D1D28">@rushstack/eslint-patch (11.2%)</text>
<rect x="430" y="124" width="18" height="18" fill="#BBBBFF" rx="3"/><text x="456" y="138" font-family="sans-serif" font-size="13" fill="#1D1D28">github-pages (4.5%)</text>
<rect x="430" y="152" width="18" height="18" fill="#87F5AA" rx="3"/><text x="456" y="166" font-family="sans-serif" font-size="13" fill="#1D1D28">jsonc-parser (4.3%)</text>
<rect x="430" y="180" width="18" height="18" fill="#FEBDB9" rx="3"/><text x="456" y="194" font-family="sans-serif" font-size="13" fill="#1D1D28">gemoji (4.1%)</text>
<rect x="430" y="208" width="18" height="18" fill="#5C5CCF" rx="3"/><text x="456" y="222" font-family="sans-serif" font-size="13" fill="#1D1D28">jekyll-commonmark-ghpages (3.8%)</text>
<rect x="430" y="236" width="18" height="18" fill="#2EAF6B" rx="3"/><text x="456" y="250" font-family="sans-serif" font-size="13" fill="#1D1D28">vscode-languageserver-types (0.7%)</text>
<rect x="430" y="264" width="18" height="18" fill="#DCDCE0" rx="3"/><text x="456" y="278" font-family="sans-serif" font-size="13" fill="#1D1D28">Other (14549 packages) (24.9%)</text>
  </g>
  <text x="375" y="410" text-anchor="middle" font-family="sans-serif" font-size="12" fill="#4C4C61">Total: 8.25 million dependent repos across 14,557 packages</text>
</svg>
